<svg width="213" height="30" viewBox="0 0 213 30" xmlns="http://www.w3.org/2000/svg" xmlns:xlink="http://www.w3.org/1999/xlink"><defs><path id="a" d="M.574.536h10.829V18.34H.573z"/></defs><g fill="none" fill-rule="evenodd"><path d="M104.844 5.254h-.76v16.64h3.125v-14.2a2.154 2.154 0 0 0-2.365-2.44m10.33 3.851h-3.134v-1.41a2.152 2.152 0 0 0-2.365-2.424h-.71v16.64h3.127v-9.706h.692a2.153 2.153 0 0 0 2.39-2.348v-.752zm-15.187 0h-.76v12.789h3.125V11.546a2.154 2.154 0 0 0-2.365-2.44M80.45 8.514a5.176 5.176 0 0 0-3.58 1.47 5.178 5.178 0 0 0-8.836 3.674v8.236h3.125v-8.236a2.06 2.06 0 0 1 4.114 0v8.236h3.124v-8.236a2.062 2.062 0 0 1 4.114 0v8.236h3.126v-8.236a5.177 5.177 0 0 0-5.187-5.144m19.537-3.26h-.76v2.44h3.125a2.154 2.154 0 0 0-2.365-2.44M94.53 17.392c0 1.79-1.84 2.483-3.184 2.179-1.587-.363-1.883-2.019-.59-2.78 1.292-.76 2.845-.253 3.783-1.106l-.008 1.707zm-7.264-5.187h3.27a2.12 2.12 0 0 1 1.975-.912c2.46.068 2.789 2.331-.218 2.39a7.047 7.047 0 0 0-3.16.845c-3.251 1.808-2.923 5.845.245 7.366 3.167 1.52 8.261-.093 8.261-4.612v-2.889c0-1.546.06-2.627-.971-3.961-2.382-3.109-8.404-2.484-9.402 1.773zm27.798 2.045v7.602h3.125V14.25a2.07 2.07 0 0 1 2.053-2.044h1.833v-3.1h-1.833a5.178 5.178 0 0 0-5.178 5.144" fill="#4A4A4A"/><g transform="translate(133.883 7.957)"><mask id="b" fill="#fff"><use xlink:href="#a"/></mask><path d="M8.295 9.502c0 2.433-4.291 2.534-4.604.27V5.49c0-2.534 4.62-2.534 4.62 0l-.016 4.012zM.574 5.49v12.839h.76A2.153 2.153 0 0 0 3.7 15.905v-1.859c3.193 1.225 7.703-.32 7.703-4.544V5.49c0-6.605-10.83-6.605-10.83 0z" fill="#4A4A4A" mask="url(#b)"/></g><path d="M129.93 17.392c0 1.79-1.841 2.483-3.184 2.179-1.588-.363-1.883-2.019-.6-2.78 1.285-.76 2.847-.253 3.775-1.106l.01 1.707zm-7.264-5.187h3.27c.44-.65 1.204-1 1.984-.912 2.458.068 2.788 2.331-.22 2.39a7.03 7.03 0 0 0-3.158.845c-3.26 1.808-2.923 5.845.235 7.366 3.16 1.52 8.262-.093 8.262-4.612v-2.889c0-1.546.068-2.627-.972-3.961-2.39-3.109-8.404-2.484-9.401 1.773z" fill="#4A4A4A"/><g stroke="#4A4A4A" stroke-width="1.5"><path d="M58.03 12.601v6.979l-8.871 8.91a2.58 2.58 0 0 1-3.664-3.634L58.03 12.6z" fill="#4A4A4A"/><path d="M54.686 15.862c-4.39-4.557-7.2-7.518-8.431-8.885-1.845-2.05-1.493-3.6-.436-4.552 1.058-.952 2.68-1.093 4.483.909 1.201 1.334 3.696 3.93 7.484 7.787" stroke-linecap="round"/></g><g transform="translate(18 6)"><rect fill="#32FFD7" x="3" y="3" width="19" height="13" rx="2.5"/><path d="M11.273 7.498l6.587-4.292a.736.736 0 0 1 1.026.226.764.764 0 0 1-.231 1.046L11.728 8.99a.736.736 0 0 1-.858-.039.769.769 0 0 1-.237-.09L3.354 4.575a.73.73 0 0 1-.249-1.016.77.77 0 0 1 1.044-.256l7.124 4.194z" fill="#4A4A4A"/><rect stroke="#4A4A4A" stroke-width="1.5" x=".75" y=".75" width="20.5" height="14.5" rx="2.5"/></g><g stroke="#4A4A4A" stroke-width="1.5"><path d="M.97 17.399V10.42l8.87-8.91a2.58 2.58 0 0 1 3.664 3.634L.97 17.4z" fill="#4A4A4A"/><path d="M4.314 14.138c4.39 4.557 7.2 7.518 8.431 8.885 1.845 2.05 1.493 3.6.436 4.552-1.058.952-2.68 1.093-4.483-.909-1.201-1.334-3.696-3.93-7.484-7.787" stroke-linecap="round"/></g><text font-family="ArialMT, Arial" font-size="10" fill="#4A4A4A"><tspan x="160" y="18">by railsware</tspan></text></g></svg>