<svg id="Layer_1" data-name="Layer 1" xmlns="http://www.w3.org/2000/svg" viewBox="0 0 200 34"><defs><style>.cls-1{fill:#1b85e5;fill-rule:evenodd;}</style></defs><title>spanishdict</title><path class="cls-1" d="M185,11.6v1.2h3V21a5.87,5.87,0,0,0,1.7,4.4,6.9,6.9,0,0,0,4.8,1.5l2.2-.1a15.51,15.51,0,0,0,1.5-.5,4,4,0,0,0,1.1-.4l.7-.4-1.8-4.9-.4.4a2,2,0,0,1-1.1.2c-1.2,0-1.7-.5-1.7-1.7V12.7h3.7V8H195V3h-7V8h-3V9.5a4,4,0,0,0-1.8-1.3,9.27,9.27,0,0,0-2.2-.8,11.47,11.47,0,0,0-2.8-.4A10.23,10.23,0,0,0,171,9.7a9.91,9.91,0,0,0-3,7.3,10.33,10.33,0,0,0,.8,4.1,8.24,8.24,0,0,0,2.2,3.2,9.21,9.21,0,0,0,3.2,2,11,11,0,0,0,6.8.3,10.4,10.4,0,0,0,4-2l1-1-4.4-4a3.29,3.29,0,0,1-4.37,1.64,3.22,3.22,0,0,1-1.13-.84,4.41,4.41,0,0,1-1.1-3.3,4.66,4.66,0,0,1,1-3.3,3.21,3.21,0,0,1,2.5-1.2,4,4,0,0,1,2,.6,2.87,2.87,0,0,1,1.1,1.4ZM22.3,21.9A7.88,7.88,0,0,1,20,24.6a10.88,10.88,0,0,1-3.7,1.8,19.12,19.12,0,0,1-5,.6,19.1,19.1,0,0,1-7.5-1.5,10.13,10.13,0,0,1-2.2-1.4A18.15,18.15,0,0,1,0,22.8l4-5,1,1A9.55,9.55,0,0,0,6.6,20l2,1a6.26,6.26,0,0,0,2.3.4,5,5,0,0,0,2.6-.5,1.35,1.35,0,0,0,1-1.3,1.8,1.8,0,0,0-.9-1.6,10,10,0,0,0-3.3-1,18.19,18.19,0,0,1-4.9-1.3,13,13,0,0,1-3-2.1A6.21,6.21,0,0,1,.8,11,9.48,9.48,0,0,1,.4,8.2a8.67,8.67,0,0,1,.7-3A7.68,7.68,0,0,1,3.2,2.6,13.86,13.86,0,0,1,6.6.6,31.64,31.64,0,0,1,11.3,0a24.15,24.15,0,0,1,4,.3,12,12,0,0,1,5.3,2.2L22,3.9,18,8.3l-1.1-1c-.49-.28-1-.55-1.5-.8l-1.7-.6a6.62,6.62,0,0,0-1.6-.2,6,6,0,0,0-2.4.4,1.6,1.6,0,0,0-.9,1.6A1.48,1.48,0,0,0,9.7,9a10.54,10.54,0,0,0,2.6.7l4.3,1a14.61,14.61,0,0,1,3.3,1.7,7,7,0,0,1,2.2,2.5,8,8,0,0,1,.8,3.6,8.28,8.28,0,0,1-.7,3.4ZM167,17h-6L160,1h8Zm.7,7.6A4.09,4.09,0,0,1,164,27a3.83,3.83,0,0,1-1.5-.3,4,4,0,0,1-2.2-2.1,4.42,4.42,0,0,1,0-3.2A4.09,4.09,0,0,1,164,19l1.5.3a4.88,4.88,0,0,1,1.3.9,3.78,3.78,0,0,1,.9,1.2,4.42,4.42,0,0,1,0,3.2ZM159,14a13.5,13.5,0,0,1-1,5.5,11.69,11.69,0,0,1-7.3,6.7,16.8,16.8,0,0,1-5.4.8H134V1h11.3a18,18,0,0,1,5.4.8A11.77,11.77,0,0,1,158,8.5,13.5,13.5,0,0,1,159,14Zm-7.4-3a5.49,5.49,0,0,0-1.2-2.1,5,5,0,0,0-2-1.4,6.9,6.9,0,0,0-2.7-.4L142,7V20h3.8a7,7,0,0,0,2.6-.5,5.79,5.79,0,0,0,2-1.5,6.17,6.17,0,0,0,1.2-2,7,7,0,0,0,.4-2.4A9.47,9.47,0,0,0,151.6,11ZM125.2,27l-.1-2.3V16.2c0-1-.2-1.7-.7-2a2.14,2.14,0,0,0-1.8-.7,2.43,2.43,0,0,0-1.8.5,2.4,2.4,0,0,0-1,1V27H113V1h6.7v9.2A7.23,7.23,0,0,1,122,8.5a8,8,0,0,1,4-.9,7.63,7.63,0,0,1,2.7.5,4,4,0,0,1,1.8,1.3,4,4,0,0,1,1.1,1.9,5.83,5.83,0,0,1,.3,2.3v8.5L132,27Zm-13.8-4a6,6,0,0,1-1.7,2.1,7.93,7.93,0,0,1-2.8,1.4,14.61,14.61,0,0,1-9.3-.6c-.68-.31-1.35-.64-2-1A7.47,7.47,0,0,1,94,23.6l3-4.3,1.1,1,1.4.9a7,7,0,0,0,3,.8,3.08,3.08,0,0,0,1.8-.3.94.94,0,0,0,.5-.9c0-.3-.2-.6-.7-.8a8,8,0,0,0-2.1-.5,10.47,10.47,0,0,1-3-.5,5.32,5.32,0,0,1-2.2-1.2,5.28,5.28,0,0,1-1.6-2,6.88,6.88,0,0,1-.5-2.8,5.45,5.45,0,0,1,.5-2.2,7.42,7.42,0,0,1,1.6-2A9.84,9.84,0,0,1,102.9,7a13.55,13.55,0,0,1,4.9.8,8.52,8.52,0,0,1,3,1.8l-2.5,4c0-.3-.4-.5-.6-.7l-1.1-.7a4.25,4.25,0,0,0-1.4-.4l-1.4-.1a6.09,6.09,0,0,0-1.7.2.76.76,0,0,0-.7.8.9.9,0,0,0,.7,1l2.3.5c2.7.3,4.7,1,5.8,2a5.8,5.8,0,0,1,1.2,6.9ZM86,33l1-16h6l1,16Zm0-21a4.15,4.15,0,0,1,.3-1.6A4.09,4.09,0,0,1,90,8l1.5.3a4,4,0,0,1,2.2,2.1,4.42,4.42,0,0,1,0,3.2A4.09,4.09,0,0,1,90,16a3.83,3.83,0,0,1-1.5-.3,4.88,4.88,0,0,1-1.3-.9,3.78,3.78,0,0,1-.9-1.2A4.17,4.17,0,0,1,86,12ZM78.2,26l-.1-2.2V15.4a2.32,2.32,0,0,0-.7-2,2.14,2.14,0,0,0-1.8-.7,3,3,0,0,0-1.8.5,3.14,3.14,0,0,0-1,1V25.9H66V7.6h6.7v2A7.37,7.37,0,0,1,75,7.8,9.17,9.17,0,0,1,79,7a5.92,5.92,0,0,1,2.7.5,4.71,4.71,0,0,1,3,3.1,8.22,8.22,0,0,1,.2,2.3v8.3L85,26ZM58.2,7.4a6.78,6.78,0,0,1,3,1.3,8,8,0,0,1,2,2.4A8.7,8.7,0,0,1,64,15V26.5H57.4V24.7a2.84,2.84,0,0,1-.9,1l-1.3.7-1.5.5-1.4.1a7.27,7.27,0,0,1-2.5-.4,7,7,0,0,1-2.4-1,5.56,5.56,0,0,1-1.7-2,5.43,5.43,0,0,1-.7-2.9,5.7,5.7,0,0,1,.7-3.1,5.51,5.51,0,0,1,1.7-2,6.91,6.91,0,0,1,2.4-.9,10.55,10.55,0,0,1,2.5-.3,3.64,3.64,0,0,1,1.4.2,4.19,4.19,0,0,1,1.5.4l1.3.6.9.9V14.7a2.64,2.64,0,0,0-1-2.1,3.74,3.74,0,0,0-2.6-.9,8,8,0,0,0-3,.6,6.35,6.35,0,0,0-2.5,1.6L46,10.1a7.82,7.82,0,0,1,2.1-1.5,8.72,8.72,0,0,1,2.5-1l2.3-.5,2-.1A16.56,16.56,0,0,1,58.2,7.4ZM57,19.4a2,2,0,0,0-1.3-1,3.43,3.43,0,0,0-1.6-.4l-1,.1a3,3,0,0,0-1.8,1.2,2,2,0,0,0-.3,1.2,2.13,2.13,0,0,0,.3,1.2l.8.7,1,.5,1,.1a3.23,3.23,0,0,0,1.6-.3,2.54,2.54,0,0,0,1.3-.9V19.4Zm-13.6,2a10.6,10.6,0,0,1-1.6,3,8.25,8.25,0,0,1-2.6,2A8.29,8.29,0,0,1,36,27a7.73,7.73,0,0,1-3-.6,5,5,0,0,1-2.2-2V34H24V7.6h6.8v2a4.68,4.68,0,0,1,2.2-2A6,6,0,0,1,36,7a7.79,7.79,0,0,1,3.1.6,7.59,7.59,0,0,1,2.6,2,9.11,9.11,0,0,1,1.7,3,14.9,14.9,0,0,1,.6,4.3,12,12,0,0,1-.6,4.4Zm-7.3-7.2A3,3,0,0,0,33.8,13a4.14,4.14,0,0,0-1.5.2,2.38,2.38,0,0,0-1.3.9v6.8a2.15,2.15,0,0,0,1.2.9,5.83,5.83,0,0,0,1.5.2A2.8,2.8,0,0,0,36,20.8a5,5,0,0,0,1-3.3,4.11,4.11,0,0,0-1-3.3Z"/></svg>